<svg version="1" xmlns="http://www.w3.org/2000/svg" width="1065.333" height="1065.333" viewBox="0 0 799.000000 799.000000"><path d="M751 40.1c-1.9.5-6.6 1.8-10.5 2.8-3.8 1.1-11 2.5-16 3.2-4.9.6-14.1 2.4-20.4 4-66.9 16.7-105 64.4-121.5 152.1-5.6 29.4-8.8 60.2-13.1 125.3-5.2 77.6-9.2 109.9-17.7 143-1.7 6.6-3.3 13-3.5 14.2-.3 1.3-.9 2.3-1.2 2.3-.4 0-7.2-1.1-15.2-2.4-30.7-5.2-43.2-6.1-88.9-6.1-32.9 0-46.9.4-62 1.8-110 10.1-213.9 39.7-248.3 70.6-11.2 10.1-12.8 21-4.3 29 3.1 2.9-1.8 3.8 44.1-8.3 111.7-29.3 176.8-39.7 240.9-38.3 38.8.8 62 4.6 90.6 14.9 27.9 10 54.9 28.1 73 49 9.9 11.4 22.9 31 26.9 40.3.2.5-2-1.1-5-3.7-29.7-25.2-83.2-42.3-156.9-50-16.7-1.7-87.8-1.8-105.5 0-41.6 4.1-79.4 11.8-106.1 21.7-10.7 4-30.5 13.4-34.2 16.3-2.1 1.7-1.9 1.7 9.2 1.4 13.3-.5 23.5 1.6 35.4 7.3l7.3 3.5 12.2-2c56.1-9 124.8-8.8 187.7.6 16 2.4 50.6 9 52.2 10 .5.3 3.4-2.1 6.7-5.3 15.9-15.9 42-18.9 68.3-7.8 22.1 9.4 43.3 30.7 51.4 52 1.6 4.1 3.1 7.5 3.4 7.5 1 0 7-10.6 10-17.6 3.8-9.2 7.4-21.7 9.6-33.9 2.5-13.7 2.5-48.5.1-63-6.3-36.3-20.5-62.9-38.2-71.5-4.8-2.3-5.2-3.3-3.5-9 1.8-6.1 4.9-26.9 6.5-43.2 1.7-18 3.1-55.7 4-103.3 1.8-101.8 7.6-148.3 23.4-186.8 16.3-40.1 45.5-63.4 84.2-67.5l7.6-.8 5.9 5.3c7.4 6.6 15.2 10.8 22.6 12.2 19.4 3.5 36.8-14.7 36.8-38.5 0-9.8-2.8-17.2-8.9-23.4-6.5-6.7-13.2-9-25.9-8.9-5.3 0-11.3.5-13.2 1z"/><path d="M173 154.1c-54.2 1.6-93 8.9-122.7 22.9C16 193.2 0 215.8 0 247.8c0 19.5 5.7 39.4 18.5 64.7 19.8 39.3 50.9 79.1 100.4 128.5 24.9 24.8 57.6 54.8 58.6 53.8.3-.3-7.6-14.6-17.5-31.8-13.4-23.3-17.7-31.6-16.8-32.2 8.2-5.5 28.9-16.7 45.3-24.5 10.9-5.1 37.5-16.3 38.9-16.3 1.5 0 32.3 53 45.6 78.3 4.5 8.7 8.4 15.6 8.7 15.4 1.2-1.3-16.2-59.1-25.7-85.2-3.2-8.8-5.8-16.1-5.6-16.2.8-.9 33.8-9.7 47.6-12.8 9.1-2 16.6-3.8 16.8-4 .2-.2-3-7.7-7.1-16.7l-7.4-16.3-4.5.2c-5.3.3-30.1 5.9-47.6 10.9-6.8 1.9-12.6 3.3-12.7 3.2-.9-1-19.4-40.2-19.2-40.5.5-.4 37.3-8.8 50.5-11.4 6.1-1.2 11.2-2.6 11.2-3 0-1-12.1-21.1-14.9-24.8l-1.9-2.4-12.8 1.7c-7.1 1-20.9 3.1-30.7 4.7s-18.4 2.9-19.1 2.9c-.7 0-4.4-4.9-8-11-8.1-13.2-25-37.7-35.7-51.8-4.9-6.4-7.4-10.4-6.6-10.7 2.7-1 30.1-4.5 43.2-5.6 7.7-.6 14.6-1.3 15.3-1.5.9-.3-1.2-3.2-5.7-8.2l-7-7.7 13.2-.7c7.3-.3 17.6-.8 23-1l9.9-.4 6.1 7.8 6.2 7.8h39.8c21.8 0 39.7-.3 39.7-.6 0-.4-1.4-3-3-6l-3.1-5.3 14.3.6c7.9.3 17.9.8 22.2 1.2l7.9.6 2 5.2 2 5.3h5.6c14.4 0 122.4 4.7 163 7 24.1 1.4 23.5 1-7.4-4.9-126.2-24.2-230.4-37.8-303.5-39.6-11.3-.3-23.6-.7-27.5-.8-3.8-.2-18 0-31.5.4zm-65.9 83.6c14.6 15 27.6 28.9 39.3 42.2l3.9 4.5-16.9 4.3c-9.3 2.4-25.9 7.1-36.8 10.4-11 3.3-20.3 5.6-20.7 5.2-1.3-1.5-5.9-17.4-7.4-26-2.7-15.3-1.2-28.4 4.2-38.6C75.3 234.9 88 221 89.8 221c.5 0 8.2 7.5 17.3 16.7zm81.2 94.5c6.2 8.4 12.7 17.4 14.5 19.9l3.1 4.7-8.7 3.2c-17.1 6.4-44 17.4-60.5 24.8-9.5 4.2-17.2 7.1-17.7 6.6-1-1.1-12.5-21.8-20.8-37.6-3.4-6.4-5.9-11.9-5.5-12.1 1.4-.8 28.6-9.5 45.8-14.6 30.6-9 34-10 36.3-10 1.8-.1 4.6 3.1 13.5 15.1z"/><path d="M339 258.7c-11.5.4-40.4 2.3-40.7 2.7-.2.1 2.4 6 5.7 13 5.4 11.3 6.3 12.6 8.3 12.1 4.6-1 35.7-5.5 48.7-7 20.4-2.4 18.8-.9 13.3-12l-4.8-9.5-11.5.2c-6.3.1-14.9.3-19 .5zM397.5 259c-.2.3.6 4.1 1.8 8.4l2.2 7.8 6-.6c20-1.9 49.9-2.8 82.5-2.4 20.3.2 36.8.3 36.7.2-1.2-1.2-45.4-7.7-66.2-9.8-24.1-2.5-62.4-4.6-63-3.6zM340 326.1c-13.9 1.2-15.4 1.6-14.5 3.7.4.9 2.4 8.4 4.5 16.5 2 8.1 4 15 4.3 15.3.3.3 7.5-.4 15.9-1.5 18.2-2.5 44.2-5.1 51.6-5.1 6.5 0 6.5 0 1.2-16.4l-4-12.3-8.3-.6c-10.9-.9-37.6-.6-50.7.4zM413 329.3c0 1.5 1.8 16.3 2.5 21.2l.5 3 39.1.1h39.1l-7.4-3.7c-15.3-7.7-38.1-15.1-59.4-19.4-14.1-2.9-14.4-2.9-14.4-1.2zM194 629.8c-20.9 5.6-33.2 23.6-31.7 46.4 2.5 39.1 42.8 76.8 82.1 76.8 19.5 0 33.6-8.1 41.4-23.8 3.4-7 3.7-8.3 4-18.2.5-12.7-1-19.7-6.9-32-10.9-23-33.5-42.1-57.4-48.6-9.2-2.4-23.7-2.8-31.5-.6zm47.4 35c16.3 7.6 27.9 28.1 24.7 43.3-1.5 6.7-3.2 9.9-7.9 14.1-17.9 16.2-53-5-55-33.1-.7-9.9 1.1-15.5 6.7-21.1 5.6-5.6 9.6-7 18.3-6.6 4.8.2 8.4 1.1 13.2 3.4zM531.1 629.5c-13.3 3.7-22.9 11.6-28.1 22.8-15.6 33.5 12 81.6 55.7 97 8.1 2.9 9.9 3.1 21.8 3.2 11.3 0 13.7-.3 18.7-2.3 26.6-10.7 35-39.9 20.4-70.7-13.9-29.2-43.6-50-73.1-51.1-7-.3-11.6.1-15.4 1.1zm46.4 35c8.7 4.2 16.8 12.4 21.2 21.3 3.6 7.1 3.8 8.2 3.8 16.6 0 10.8-2.1 15.9-8.7 20.6-8.4 6.1-18.4 6.4-29.8.8-19.5-9.5-30-33.7-21.9-50.4 5.6-11.7 21.6-15.7 35.4-8.9z"/></svg>